<?xml version="1.0" encoding="utf-8"?>
<!-- Generator: Adobe Illustrator 17.1.0, SVG Export Plug-In . SVG Version: 6.00 Build 0)  -->
<!DOCTYPE svg PUBLIC "-//W3C//DTD SVG 1.1//EN" "http://www.w3.org/Graphics/SVG/1.1/DTD/svg11.dtd">
<svg version="1.1" id="Layer_1" xmlns="http://www.w3.org/2000/svg" xmlns:xlink="http://www.w3.org/1999/xlink" x="0px" y="0px"
	 viewBox="0 0 17 17" enable-background="new 0 0 17 17" xml:space="preserve">
<path d="M15.3,7h-4.5c-0.2,0-0.4-0.1-0.4-0.3L8.9,2.4C8.8,2,8.2,2,8.1,2.4L6.7,6.7C6.6,6.9,6.4,7,6.3,7H1.7C1.3,7,1.1,7.6,1.5,7.8
	l3.7,2.7c0.2,0.1,0.2,0.3,0.2,0.5l-1.4,4.3c-0.1,0.4,0.3,0.8,0.7,0.5l3.7-2.7c0.2-0.1,0.4-0.1,0.5,0l3.7,2.7
	c0.3,0.3,0.8-0.1,0.7-0.5L11.7,11c-0.1-0.2,0-0.4,0.2-0.5l3.7-2.7C15.9,7.6,15.7,7,15.3,7z"/>
<path fill="#FFFFFF" d="M11.2,13.7l-2.6-1.9c-0.1,0-0.1,0-0.2,0l-2.6,1.9c-0.1,0.1-0.3,0-0.2-0.2l1-3.1c0-0.1,0-0.1-0.1-0.2L3.8,8.3
	C3.7,8.2,3.8,8,3.9,8h3.3c0.1,0,0.1,0,0.2-0.1l1-3.1c0-0.1,0.3-0.1,0.3,0l1,3.1C9.7,8,9.7,8,9.8,8h3.3c0.2,0,0.2,0.2,0.1,0.3
	l-2.6,1.9c-0.1,0-0.1,0.1-0.1,0.2l1,3.1C11.5,13.7,11.4,13.8,11.2,13.7z"/>
</svg>
